<?xml version="1.0" encoding="UTF-8" standalone="no"?>
<svg width="24px" height="24px" viewBox="0 0 24 24" version="1.1" xmlns="http://www.w3.org/2000/svg" xmlns:xlink="http://www.w3.org/1999/xlink">
    <!-- Generator: Sketch 3.8.3 (29802) - http://www.bohemiancoding.com/sketch -->
    <title>Shape</title>
    <desc>Created with Sketch.</desc>
    <defs></defs>
    <g id="Page-1" stroke="none" stroke-width="1" fill="none" fill-rule="evenodd">
        <g id="Desktop-HD-Copy-4" transform="translate(-461.000000, -886.000000)" fill="#FFFFFF">
            <path d="M473,886 C466.374,886 461,891.373 461,898 C461,903.302 464.438,907.8 469.207,909.387 C469.806,909.498 470,909.126 470,908.81 L470,906.576 C466.662,907.302 465.967,905.16 465.967,905.16 C465.421,903.773 464.634,903.404 464.634,903.404 C463.545,902.659 464.717,902.675 464.717,902.675 C465.922,902.759 466.556,903.912 466.556,903.912 C467.626,905.746 469.363,905.216 470.048,904.909 C470.155,904.134 470.466,903.604 470.81,903.305 C468.145,903 465.343,901.971 465.343,897.374 C465.343,896.063 465.812,894.993 466.579,894.153 C466.455,893.85 466.044,892.629 466.696,890.977 C466.696,890.977 467.704,890.655 469.997,892.207 C470.954,891.941 471.98,891.808 473,891.803 C474.02,891.808 475.047,891.941 476.006,892.207 C478.297,890.655 479.303,890.977 479.303,890.977 C479.956,892.63 479.545,893.851 479.421,894.153 C480.191,894.993 480.656,896.064 480.656,897.374 C480.656,901.983 477.849,902.998 475.177,903.295 C475.607,903.667 476,904.397 476,905.517 L476,908.81 C476,909.129 476.192,909.504 476.801,909.386 C481.566,907.797 485,903.3 485,898 C485,891.373 479.627,886 473,886 L473,886 Z" id="Shape"></path>
        </g>
    </g>
</svg>