<?xml version="1.0" encoding="UTF-8" standalone="no"?>
<svg width="24px" height="24px" viewBox="0 0 24 24" version="1.1" xmlns="http://www.w3.org/2000/svg" xmlns:xlink="http://www.w3.org/1999/xlink">
    <!-- Generator: Sketch 3.8.3 (29802) - http://www.bohemiancoding.com/sketch -->
    <title>Shape</title>
    <desc>Created with Sketch.</desc>
    <defs></defs>
    <g id="Page-1" stroke="none" stroke-width="1" fill="none" fill-rule="evenodd">
        <g id="Desktop-HD-Copy-4" transform="translate(-726.000000, -886.000000)" fill="#FFFFFF">
            <path d="M738,886 C731.373,886 726,891.373 726,898 C726,904.627 731.373,910 738,910 C744.627,910 750,904.627 750,898 C750,891.373 744.627,886 738,886 L738,886 Z M744.066,895.645 C744.249,899.685 741.236,904.189 735.902,904.189 C734.28,904.189 732.771,903.713 731.5,902.898 C733.024,903.078 734.545,902.654 735.752,901.709 C734.496,901.686 733.435,900.855 733.068,899.714 C733.519,899.8 733.963,899.775 734.366,899.665 C732.985,899.387 732.031,898.143 732.062,896.812 C732.45,897.027 732.892,897.156 733.363,897.171 C732.084,896.316 731.722,894.627 732.474,893.336 C733.89,895.074 736.007,896.217 738.394,896.337 C737.975,894.541 739.338,892.81 741.193,892.81 C742.018,892.81 742.765,893.159 743.289,893.717 C743.943,893.589 744.559,893.349 745.113,893.02 C744.898,893.691 744.443,894.253 743.85,894.609 C744.431,894.539 744.985,894.385 745.499,894.156 C745.115,894.734 744.629,895.24 744.066,895.645 L744.066,895.645 Z" id="Shape"></path>
        </g>
    </g>
</svg>